#N canvas 0 22 706 574 10;
#N canvas 0 22 450 300 (subpatch) 0;
#X array \$0-sample 321246 float 2;
#X coords 0 1 321246 -1 200 140 1;
#X restore 348 283 graph;
#X obj 80 80 bng 15 250 50 0 empty empty empty 0 -6 0 8 -262144 -1
-1;
#X obj 80 195 soundfiler;
#X obj 80 222 expr 44100 / $f1;
#X floatatom 80 283 5 0 0 0 - - -;
#X obj 80 335 phasor~;
#X obj 80 375 *~;
#X obj 223 375 unsig~ 50;
#X obj 349 431 hsl 200 15 0 1 0 0 empty empty empty -2 -6 0 8 -262144
-1 -1 0 1;
#X text 347 454 0;
#X text 547 453 1;
#X text 105 84 load sound file;
#X text 347 473 slider shows playing position;
#X obj 297 214 t b f;
#X obj 80 58 loadbang;
#X obj 80 114 symbol \$1;
#X text 77 12 Inspired by Johannes Kreidlers example 3.4.2.2. Sampler
with variable Speed from www.pd-tutorial.com;
#X obj 297 66 inlet;
#X obj 80 441 outlet~;
#X obj 80 308 * 0;
#X obj 80 412 tabread4~ \$0-sample;
#X obj 149 114 symbol \$0-sample;
#X obj 80 138 pack s s;
#X msg 80 169 read -resize \$1 \$2;
#X connect 1 0 21 0;
#X connect 1 0 15 0;
#X connect 2 0 3 0;
#X connect 2 0 6 1;
#X connect 3 0 4 0;
#X connect 4 0 19 0;
#X connect 5 0 6 0;
#X connect 5 0 7 0;
#X connect 6 0 20 0;
#X connect 7 0 8 0;
#X connect 13 0 4 0;
#X connect 13 1 19 1;
#X connect 14 0 1 0;
#X connect 15 0 22 0;
#X connect 17 0 13 0;
#X connect 19 0 5 0;
#X connect 20 0 18 0;
#X connect 21 0 22 1;
#X connect 22 0 23 0;
#X connect 23 0 2 0;
