#N canvas 814 432 567 372 10;
#X obj 204 55 tgl 15 0 empty empty empty 0 -6 0 8 -262144 -1 -1 0 1
;
#X text 222 55 <-- connection status;
#X obj 52 64 print;
#X obj 97 36 netreceive 7778;
#X floatatom 184 74 5 0 0 0 - - -;
#X obj 194 146 bng 15 250 50 0 empty empty empty 17 7 0 10 -262144
-1 -1;
#X obj 96 325 dac~;
#X obj 96 295 catch~ audioOut;
#X floatatom 376 314 5 0 0 0 - - -;
#X obj 97 261 throw~ audioOut;
#X obj 97 113 route Start Speed Stop;
#X floatatom 97 157 5 0 0 0 - - -;
#X msg 149 163 0;
#X obj 135 211 hsl 128 15 0 1 0 0 empty empty empty -2 -8 0 10 -260097
-1 -1 1800 1;
#X obj 99 234 *~;
#X obj 102 187 SamplerVariableSpeed tank2.wav;
#X connect 3 0 2 0;
#X connect 3 0 10 0;
#X connect 3 1 0 0;
#X connect 3 1 4 0;
#X connect 5 0 12 0;
#X connect 7 0 6 0;
#X connect 7 0 6 1;
#X connect 10 0 11 0;
#X connect 10 1 11 0;
#X connect 10 2 5 0;
#X connect 11 0 15 0;
#X connect 12 0 15 0;
#X connect 13 0 14 1;
#X connect 14 0 9 0;
#X connect 15 0 14 0;
